<?xml version="1.0" standalone="no"?>
<!DOCTYPE svg PUBLIC "-//W3C//DTD SVG 20010904//EN"
 "http://www.w3.org/TR/2001/REC-SVG-20010904/DTD/svg10.dtd">
<svg version="1.0" xmlns="http://www.w3.org/2000/svg"
 width="700.000000pt" height="700.000000pt" viewBox="0 0 700.000000 700.000000"
 preserveAspectRatio="xMidYMid meet">
<metadata>
Created by potrace 1.11, written by Peter Selinger 2001-2013
</metadata>
<g transform="translate(0.000000,700.000000) scale(0.100000,-0.100000)"
fill="#000000" stroke="none">
<path d="M2613 6962 l-33 -3 14 -32 c43 -99 200 -458 216 -492 10 -22 33 -74
50 -115 18 -41 43 -97 55 -125 13 -27 51 -115 85 -195 34 -80 77 -178 96 -218
19 -41 34 -76 34 -78 0 -3 193 -447 240 -549 9 -22 37 -85 60 -140 23 -55 55
-127 70 -160 15 -33 49 -109 75 -170 26 -60 53 -123 61 -140 7 -16 33 -75 57
-130 l45 -100 -769 -5 -769 -5 16 -30 c15 -29 313 -617 791 -1565 267 -528
617 -1219 928 -1835 117 -231 258 -511 314 -622 57 -112 104 -203 106 -203 1
0 -1 17 -6 38 -5 20 -11 57 -14 81 -4 25 -8 47 -10 51 -2 3 -6 26 -10 50 -3
25 -11 64 -16 88 -5 23 -12 59 -15 78 -3 20 -7 46 -10 58 -2 11 -13 71 -24
131 -11 61 -22 124 -25 140 -25 132 -75 407 -80 435 -3 19 -8 42 -10 50 -2 8
-6 33 -10 55 -3 22 -17 101 -31 175 -14 74 -28 146 -30 160 -11 64 -25 137
-29 160 -3 14 -8 39 -10 55 -12 68 -25 142 -30 165 -3 14 -11 61 -19 105 -8
44 -29 157 -46 250 -18 94 -34 184 -36 200 -3 17 -9 50 -14 75 -5 25 -15 74
-21 110 -6 36 -13 76 -16 90 -2 14 -20 111 -39 215 -20 105 -36 201 -37 215
l-2 25 563 3 562 2 -5 32 c-3 17 -8 34 -10 38 -2 3 -6 17 -8 31 -6 32 -42 180
-72 299 -13 52 -26 106 -29 120 -5 26 -25 109 -51 215 -9 33 -17 69 -19 80 -2
11 -16 67 -31 125 -15 58 -29 115 -31 127 -2 12 -36 151 -75 310 -39 158 -72
297 -75 308 -2 11 -18 76 -34 145 -17 69 -33 134 -35 145 -5 25 -132 549 -142
585 -3 14 -7 31 -9 39 -2 8 -6 26 -9 40 -14 52 -116 477 -120 497 -3 11 -30
123 -61 250 -31 126 -57 234 -58 241 -1 7 -5 15 -9 19 -6 7 -1329 12 -1394 6z"/>
<path d="M348 6742 l-26 -3 1 -3207 2 -3207 1808 -2 c994 0 1807 2 1807 5 0 4
-118 241 -262 528 l-262 521 -996 1 c-547 0 -1006 1 -1020 1 l-25 1 2 2142 c0
1179 1 2149 2 2155 1 10 159 13 742 12 407 -1 742 1 745 3 3 4 -186 449 -266
623 -10 22 -30 69 -45 105 -15 36 -42 97 -59 135 -18 39 -43 96 -56 128 -18
43 -29 57 -44 58 -74 2 -2026 3 -2048 1z"/>
<path d="M4345 6740 c-1 -3 13 -68 31 -145 19 -77 61 -252 95 -390 33 -137 74
-308 91 -380 17 -71 32 -132 34 -134 2 -2 233 -4 514 -3 375 0 510 -3 511 -12
1 -15 1 -4256 0 -4278 -1 -17 -37 -18 -616 -18 l-615 0 0 -22 c0 -13 9 -66 19
-118 11 -52 22 -111 25 -130 3 -19 10 -60 16 -90 6 -30 13 -68 16 -85 6 -37
74 -410 81 -445 3 -14 10 -56 17 -95 l12 -70 1049 0 1050 0 2 3210 2 3210
-1166 0 c-640 0 -1166 -2 -1168 -5z"/>
</g>
</svg>
